<svg width="30" height="30" viewBox="0 0 30 30" fill="none" xmlns="http://www.w3.org/2000/svg">
<g id="Instagram">
<path id="Vector" d="M10 3.75018C6.55375 3.75018 3.75 6.55393 3.75 10.0002V20.0002C3.75 23.4464 6.55375 26.2502 10 26.2502H20C23.4463 26.2502 26.25 23.4464 26.25 20.0002V10.0002C26.25 6.55393 23.4463 3.75018 20 3.75018H10ZM10 6.25018H20C22.0675 6.25018 23.75 7.93268 23.75 10.0002V20.0002C23.75 22.0677 22.0675 23.7502 20 23.7502H10C7.9325 23.7502 6.25 22.0677 6.25 20.0002V10.0002C6.25 7.93268 7.9325 6.25018 10 6.25018ZM21.25 7.50018C20.9185 7.50018 20.6005 7.63188 20.3661 7.8663C20.1317 8.10072 20 8.41866 20 8.75018C20 9.0817 20.1317 9.39965 20.3661 9.63407C20.6005 9.86849 20.9185 10.0002 21.25 10.0002C21.5815 10.0002 21.8995 9.86849 22.1339 9.63407C22.3683 9.39965 22.5 9.0817 22.5 8.75018C22.5 8.41866 22.3683 8.10072 22.1339 7.8663C21.8995 7.63188 21.5815 7.50018 21.25 7.50018ZM15 8.75018C11.5538 8.75018 8.75 11.5539 8.75 15.0002C8.75 18.4464 11.5538 21.2502 15 21.2502C18.4462 21.2502 21.25 18.4464 21.25 15.0002C21.25 11.5539 18.4462 8.75018 15 8.75018ZM15 11.2502C17.0675 11.2502 18.75 12.9327 18.75 15.0002C18.75 17.0677 17.0675 18.7502 15 18.7502C12.9325 18.7502 11.25 17.0677 11.25 15.0002C11.25 12.9327 12.9325 11.2502 15 11.2502Z" fill="#16205F"/>
</g>
</svg>
