<svg width="24" height="24" viewBox="0 0 24 24" fill="none" xmlns="http://www.w3.org/2000/svg">
<g clip-path="url(#clip0_203_597)">
<path d="M12 2.00018C8.13 2.00018 5 5.13018 5 9.00018C5 14.2502 12 22.0002 12 22.0002C12 22.0002 19 14.2502 19 9.00018C19 5.13018 15.87 2.00018 12 2.00018ZM7 9.00018C7 6.24018 9.24 4.00018 12 4.00018C14.76 4.00018 17 6.24018 17 9.00018C17 11.8802 14.12 16.1902 12 18.8802C9.92 16.2102 7 11.8502 7 9.00018Z" fill="#16205F"/>
<path d="M12 11.5002C13.3807 11.5002 14.5 10.3809 14.5 9.00018C14.5 7.61947 13.3807 6.50018 12 6.50018C10.6193 6.50018 9.5 7.61947 9.5 9.00018C9.5 10.3809 10.6193 11.5002 12 11.5002Z" fill="#16205F"/>
</g>
<defs>
<clipPath id="clip0_203_597">
<rect width="24" height="24" fill="white"/>
</clipPath>
</defs>
</svg>
