<svg width="24" height="24" viewBox="0 0 24 24" fill="none" xmlns="http://www.w3.org/2000/svg">
<g id="Phone enabled" clip-path="url(#clip0_203_591)">
<path id="Vector" d="M17.38 10.7901L15.18 8.59012C14.9 8.31012 14.82 7.92012 14.93 7.57012C15.3 6.45012 15.5 5.25012 15.5 4.00012C15.5 3.45012 15.95 3.00012 16.5 3.00012H20C20.55 3.00012 21 3.45012 21 4.00012C21 13.3901 13.39 21.0001 4 21.0001C3.45 21.0001 3 20.5501 3 20.0001V16.5101C3 15.9601 3.45 15.5101 4 15.5101C5.24 15.5101 6.45 15.3101 7.57 14.9401C7.92 14.8201 8.32 14.9101 8.59 15.1801L10.79 17.3801C13.62 15.9301 15.94 13.6201 17.38 10.7901Z" fill="#16205F"/>
</g>
<defs>
<clipPath id="clip0_203_591">
<rect width="24" height="24" fill="white"/>
</clipPath>
</defs>
</svg>
