<svg width="30" height="30" viewBox="0 0 30 30" fill="none" xmlns="http://www.w3.org/2000/svg">
<path d="M6.25 3.75018C4.87125 3.75018 3.75 4.87143 3.75 6.25018V23.7502C3.75 25.1289 4.87125 26.2502 6.25 26.2502H23.75C25.1287 26.2502 26.25 25.1289 26.25 23.7502V6.25018C26.25 4.87143 25.1287 3.75018 23.75 3.75018H6.25ZM6.25 6.25018H23.75L23.7524 23.7502H6.25V6.25018ZM18.208 8.89178C16.493 8.89178 15.1001 10.2859 15.1001 11.9997C15.1001 12.3209 15.2075 12.5355 15.2075 12.7492C12.6363 12.643 10.3867 11.3576 8.88672 9.53632C8.56547 9.96507 8.45703 10.4991 8.45703 11.0353C8.45703 12.1066 8.99357 12.966 9.85107 13.716C9.31607 13.6085 8.88578 13.5001 8.45703 13.2863C8.45703 14.7863 9.52791 15.9656 10.9204 16.2868C10.5992 16.3943 10.3847 16.3942 10.0635 16.3942C9.95598 16.3942 9.74012 16.2868 9.52637 16.2868C9.95512 17.4656 11.0269 18.4279 12.4194 18.4279C11.3482 19.1779 9.95451 19.7145 8.56201 19.7145H7.8125C9.205 20.5708 10.8131 21.1086 12.5269 21.1086C18.2056 21.1086 21.3135 16.3932 21.3135 12.322V11.8923C21.8497 11.4635 22.3837 10.9284 22.8149 10.2834C22.1724 10.6059 21.6362 10.713 20.9937 10.8205C21.6362 10.393 22.1715 9.85663 22.3853 9.10663C21.849 9.42788 21.2065 9.74864 20.4565 9.85614C19.9203 9.21364 19.0655 8.89178 18.208 8.89178Z" fill="#16205F"/>
</svg>
