<svg width="30" height="30" viewBox="0 0 30 30" fill="none" xmlns="http://www.w3.org/2000/svg">
<path d="M15 5.00018C15 5.00018 7.18193 5.00014 5.23193 5.52264C4.15568 5.81014 3.30996 6.65712 3.02246 7.73212C2.49996 9.68212 2.5 15.0002 2.5 15.0002C2.5 15.0002 2.49996 20.3182 3.02246 22.2682C3.30996 23.3445 4.15693 24.1902 5.23193 24.4777C7.18193 25.0002 15 25.0002 15 25.0002C15 25.0002 22.8181 25.0002 24.7681 24.4777C25.8431 24.1902 26.69 23.3433 26.9775 22.2682C27.5 20.3182 27.5 15.0002 27.5 15.0002C27.5 15.0002 27.5 9.68212 26.9775 7.73212C26.69 6.65712 25.8431 5.81014 24.7681 5.52264C22.8181 5.00014 15 5.00018 15 5.00018ZM15 7.50018C18.6025 7.50018 23.1136 7.66719 24.1211 7.93719C24.3323 7.99344 24.5055 8.16659 24.563 8.37909C24.8642 9.50159 25 12.9277 25 15.0002C25 17.0727 24.8642 20.4975 24.563 21.6213C24.5067 21.8325 24.3336 22.0057 24.1211 22.0632C23.1148 22.3332 18.6025 22.5002 15 22.5002C11.3988 22.5002 6.88766 22.3332 5.87891 22.0632C5.66766 22.0069 5.49451 21.8338 5.43701 21.6213C5.13576 20.4988 5 17.0727 5 15.0002C5 12.9277 5.13576 9.50165 5.43701 8.37665C5.49326 8.16665 5.66641 7.99344 5.87891 7.93719C6.88516 7.66719 11.3975 7.50018 15 7.50018ZM12.5 10.6691V19.3312L20 15.0002L12.5 10.6691Z" fill="#16205F"/>
</svg>
