<svg width="30" height="30" viewBox="0 0 30 30" fill="none" xmlns="http://www.w3.org/2000/svg">
<path d="M15 2.50018C8.11125 2.50018 2.5 8.11143 2.5 15.0002C2.5 21.8889 8.11125 27.5002 15 27.5002C21.8888 27.5002 27.5 21.8889 27.5 15.0002C27.5 8.11143 21.8888 2.50018 15 2.50018ZM15 5.00018C20.5377 5.00018 25 9.46253 25 15.0002C25 20.0183 21.3317 24.1415 16.5234 24.8732V17.9811H19.4336L19.8901 15.0246H16.5234V13.4084C16.5234 12.1796 16.9237 11.0891 18.0737 11.0891H19.9194V8.50848C19.5944 8.46473 18.9086 8.36932 17.6123 8.36932C14.9048 8.36932 13.3179 9.79932 13.3179 13.0568V15.0246H10.5347V17.9811H13.3179V24.8488C8.58786 24.0512 5 19.963 5 15.0002C5 9.46253 9.46235 5.00018 15 5.00018Z" fill="#16205F"/>
</svg>
